<svg xmlns="http://www.w3.org/2000/svg" width="510" height="450" viewBox="0 0 510 450" version="1.1"><path d="M 93.500 231.187 C 81.950 246.645, 72.378 259.789, 72.229 260.396 C 72.080 261.003, 99.530 274.070, 133.229 289.434 C 166.928 304.798, 198.632 319.281, 203.682 321.619 L 212.863 325.871 234.432 297.091 C 246.294 281.262, 256 268.016, 256 267.656 C 256 267.295, 255.622 267, 255.160 267 C 254.421 267, 130.552 210.704, 119.062 205.147 C 116.621 203.966, 114.596 203.018, 114.562 203.041 C 114.528 203.064, 105.050 215.729, 93.500 231.187 M 406 210.928 C 400.225 213.585, 370.300 227.320, 339.500 241.450 C 308.700 255.581, 283.176 267.457, 282.779 267.842 C 281.765 268.827, 318.785 322.553, 320.277 322.262 C 322.047 321.916, 452.344 261.955, 453.315 261.039 C 453.929 260.459, 417.502 205.802, 416.667 206.049 C 416.575 206.077, 411.775 208.272, 406 210.928 M 240.680 316.448 C 229.779 330.964, 220.179 343.101, 219.348 343.420 C 218.517 343.739, 216.726 344, 215.369 344 C 214.011 344, 192.203 334.550, 166.905 323 C 141.608 311.450, 120.706 302, 120.455 302 C 120.205 302, 120.015 308.413, 120.032 316.250 L 120.065 330.500 189.782 362.219 L 259.500 393.938 260.259 391.043 C 260.677 389.450, 260.902 366.077, 260.759 339.102 L 260.500 290.057 240.680 316.448 M 277.656 299.699 C 276.686 309.972, 276.871 394.216, 277.863 393.833 C 278.338 393.650, 308.488 379.826, 344.863 363.114 L 411 332.728 411 316.364 C 411 307.364, 410.697 300, 410.327 300 C 409.957 300, 389.025 309.450, 363.811 321 C 338.598 332.550, 317.082 342, 316 342 C 312.642 342, 308.661 337.220, 293.932 315.500 C 286.099 303.950, 279.378 294.140, 278.995 293.699 C 278.612 293.259, 278.010 295.959, 277.656 299.699 M 103.426 315.500 C 103.427 327.600, 103.571 332.413, 103.747 326.195 C 103.923 319.977, 103.922 310.077, 103.746 304.195 C 103.569 298.313, 103.425 303.400, 103.426 315.500 M 427.378 328 C 427.378 334.325, 427.541 336.913, 427.739 333.750 C 427.937 330.587, 427.937 325.413, 427.739 322.250 C 427.541 319.087, 427.378 321.675, 427.378 328" stroke="none" fill="#82bfec" fill-rule="evenodd"/><path d="M 380.211 81.585 L 380.500 90.171 420 108.163 C 441.725 118.059, 459.812 126.458, 460.192 126.828 C 460.881 127.497, 420.079 182.750, 417.731 184.327 C 416.956 184.848, 403.527 179.187, 381.500 169.057 L 346.500 152.960 341.250 158.642 C 338.363 161.767, 336 164.646, 336 165.040 C 336 165.433, 350.063 172.145, 367.250 179.954 C 384.438 187.763, 398.836 194.476, 399.246 194.872 C 399.922 195.524, 383.393 203.302, 296.879 243.041 L 269.257 255.728 201.379 224.785 C 164.045 207.767, 133.152 193.508, 132.727 193.099 C 132.302 192.689, 145.014 186.358, 160.976 179.028 C 186.403 167.352, 189.850 165.504, 188.805 164.101 C 188.150 163.220, 185.640 160.423, 183.227 157.885 L 178.840 153.269 147.670 167.656 C 130.527 175.569, 115.939 181.921, 115.253 181.772 C 113.847 181.465, 76.913 127.949, 77.478 127.035 C 77.678 126.712, 93.358 119.317, 112.323 110.603 L 146.805 94.759 147.212 86.129 C 147.437 81.383, 147.593 77.425, 147.559 77.333 C 147.526 77.241, 127.702 86.266, 103.506 97.390 C 55.975 119.241, 55.300 119.658, 57.601 125.754 C 58.188 127.310, 68.419 142.801, 80.335 160.178 C 92.251 177.555, 102 192.064, 102 192.419 C 102 192.774, 90.525 208.353, 76.500 227.039 C 54.645 256.157, 51 261.507, 51 264.468 C 51 266.659, 51.731 268.576, 52.999 269.711 C 54.099 270.695, 66.011 276.450, 79.471 282.500 L 103.944 293.500 103.972 316.076 C 103.999 338.198, 104.045 338.692, 106.250 340.694 C 108.907 343.107, 266.227 415, 268.849 415 C 271.719 415, 423.317 345.004, 425.250 342.786 C 426.816 340.990, 427 338.168, 427 316.011 L 427 291.244 449.250 281.045 C 461.488 275.435, 472.153 270.212, 472.950 269.437 C 476.775 265.722, 475.253 262.744, 452.695 229.820 C 440.758 212.396, 430.736 197.477, 430.426 196.666 C 430.073 195.747, 439.474 182.366, 455.430 161.074 C 476.879 132.454, 481 126.419, 481 123.632 C 481 121.732, 480.251 119.639, 479.250 118.743 C 477.497 117.174, 458.732 108.422, 391.707 77.913 C 385.771 75.211, 380.691 73, 380.418 73 C 380.145 73, 380.052 76.863, 380.211 81.585 M 92.479 232.029 C 80.513 247.994, 70.898 261.226, 71.112 261.432 C 71.778 262.076, 212.227 326.002, 212.881 325.959 C 213.700 325.905, 255.414 270.057, 255.794 268.507 C 255.970 267.788, 227.861 254.419, 185.666 235.153 C 146.934 217.469, 115.017 203, 114.739 203 C 114.461 203, 104.444 216.063, 92.479 232.029 M 372 226.053 C 348.075 237.063, 318.017 250.846, 305.205 256.683 C 290.354 263.448, 282.017 267.766, 282.205 268.596 C 282.712 270.832, 318.445 322.922, 319.500 322.961 C 320.641 323.004, 453.142 262.221, 454.176 261.180 C 455.004 260.346, 417.900 206.040, 416.500 206.036 C 415.950 206.035, 395.925 215.042, 372 226.053 M 242.500 313.330 C 221.405 341.375, 219.106 344.019, 215.882 343.945 C 214.572 343.915, 192.575 334.307, 167 322.593 L 120.500 301.295 119.654 315.252 C 119.124 323.997, 119.165 329.565, 119.765 330.165 C 120.292 330.692, 152.173 345.475, 190.611 363.016 L 260.500 394.909 260.766 368.454 C 260.913 353.904, 260.913 330.165, 260.766 315.700 L 260.500 289.400 242.500 313.330 M 277 342.300 C 277 370.735, 277.363 394, 277.807 394 C 278.910 394, 409.261 334.144, 410.151 333.230 C 411.147 332.206, 412.461 299, 411.505 299 C 411.075 299, 390.095 308.450, 364.882 320 C 339.596 331.584, 317.772 341, 316.212 341 C 314.655 341, 312.672 340.438, 311.804 339.750 C 310.937 339.063, 303.158 328.150, 294.519 315.500 C 285.881 302.850, 278.405 292.072, 277.906 291.550 C 277.364 290.982, 277 311.369, 277 342.300" stroke="none" fill="#000000" fill-rule="evenodd"/><path d="M 378.334 93.847 C 375.702 107.529, 364.313 129.570, 351.502 145.771 C 347.127 151.304, 345.780 153.641, 346.906 153.744 C 347.783 153.824, 363.800 160.926, 382.500 169.526 C 403.957 179.394, 416.954 184.855, 417.731 184.331 C 420.084 182.743, 460.880 127.496, 460.192 126.829 C 459.812 126.460, 441.950 118.189, 420.500 108.448 C 399.050 98.708, 381.032 90.166, 380.460 89.466 C 379.695 88.530, 379.134 89.687, 378.334 93.847 M 147.122 93.084 C 147.040 94.154, 135.768 99.830, 112.421 110.558 C 93.402 119.297, 77.678 126.712, 77.478 127.035 C 76.913 127.949, 113.847 181.465, 115.253 181.772 C 115.939 181.921, 130.541 175.562, 147.703 167.641 C 164.865 159.720, 179.265 153.518, 179.703 153.859 C 180.141 154.199, 179.109 152.908, 177.409 150.989 C 162.457 134.115, 150.197 111.617, 148.075 97.160 C 147.618 94.047, 147.189 92.213, 147.122 93.084 M 321.466 179.510 C 306.679 194.392, 291.460 207.824, 273.682 221.683 L 262.864 230.116 255.682 224.352 C 241.364 212.861, 221.234 195.252, 205.733 180.656 L 189.899 165.747 160.927 179.051 C 144.992 186.368, 132.302 192.689, 132.727 193.099 C 133.152 193.508, 164.045 207.767, 201.379 224.785 L 269.257 255.728 296.879 243.041 C 383.352 203.320, 399.922 195.525, 399.246 194.879 C 398.836 194.487, 384.310 187.706, 366.966 179.810 L 335.432 165.454 321.466 179.510 M 277 296.500 C 277 299.708, 277.185 302.146, 277.412 301.917 C 278.163 301.156, 278.411 292.077, 277.699 291.366 C 277.315 290.981, 277 293.292, 277 296.500 M 427.392 304 C 427.392 311.425, 427.549 314.462, 427.742 310.750 C 427.934 307.038, 427.934 300.962, 427.742 297.250 C 427.549 293.538, 427.392 296.575, 427.392 304 M 410.776 305.748 C 411.261 317.613, 411.675 318.782, 411.840 308.750 C 411.928 303.387, 411.663 298.999, 411.250 298.998 C 410.837 298.997, 410.624 302.034, 410.776 305.748 M 119.328 323.500 C 119.333 327.350, 119.513 328.802, 119.730 326.728 C 119.946 324.653, 119.943 321.503, 119.722 319.728 C 119.501 317.952, 119.324 319.650, 119.328 323.500" stroke="none" fill="#639fcc" fill-rule="evenodd"/><path d="M 316.500 26.959 C 295.596 31.485, 275.212 48.908, 264 71.832 C 262.075 75.768, 260.275 78.978, 260 78.965 C 259.725 78.952, 257.533 75.376, 255.129 71.018 C 235.176 34.853, 197.572 20.728, 171.734 39.695 C 165.584 44.210, 158.018 53.534, 153.447 62.233 C 141.827 84.346, 146.681 109.950, 167.981 138.903 C 184.787 161.747, 217.787 193.896, 255.686 224.348 L 262.872 230.122 272.186 222.885 C 323.084 183.335, 361.751 139.608, 374.068 107.668 C 383.716 82.651, 381.236 62.014, 366.585 45.383 C 360.874 38.900, 350.251 31.627, 342.500 28.892 C 335.836 26.541, 322.878 25.578, 316.500 26.959" stroke="none" fill="#f08faf" fill-rule="evenodd"/></svg>