<svg xmlns="http://www.w3.org/2000/svg" width="476" height="442" viewBox="0 0 476 442" version="1.1"><path d="M 291.912 22.051 C 279.732 24.938, 267.378 32.594, 257.039 43.665 C 249.997 51.205, 241.036 64.494, 238.774 70.750 C 238.127 72.537, 237.328 74, 236.998 74 C 236.668 74, 235.365 71.873, 234.102 69.273 C 224.833 50.195, 207.291 34.022, 189.913 28.532 C 171.078 22.582, 154.009 27.229, 140.905 41.874 C 130.430 53.581, 125.253 64.977, 124.316 78.392 C 123.842 85.187, 124.178 88.105, 126.395 96.413 C 134.327 126.146, 160.521 158.069, 215 204.394 C 242.574 227.842, 238.289 226.236, 249.644 217.375 C 271.979 199.945, 292.645 181.081, 311.238 161.153 C 318.244 153.644, 323.981 147.153, 323.988 146.729 C 323.994 146.304, 326.191 143.154, 328.869 139.729 C 351.619 110.626, 361.433 80.562, 354.991 59.705 C 349.817 42.954, 332.941 27.085, 315.458 22.531 C 309.168 20.893, 297.780 20.661, 291.912 22.051 M 80.397 317 C 80.397 324.975, 80.553 328.238, 80.743 324.250 C 80.932 320.262, 80.932 313.738, 80.743 309.750 C 80.553 305.762, 80.397 309.025, 80.397 317 M 404.374 322.500 C 404.376 328.550, 404.541 330.896, 404.740 327.713 C 404.939 324.531, 404.937 319.581, 404.736 316.713 C 404.535 313.846, 404.372 316.450, 404.374 322.500" stroke="none" fill="#ebb4c6" fill-rule="evenodd"/><path d="M 70.035 225.954 C 58.411 241.432, 48.676 254.680, 48.403 255.393 C 48.059 256.289, 69.707 266.644, 118.488 288.917 C 157.308 306.641, 189.478 320.999, 189.978 320.822 C 191.055 320.440, 234.301 262.950, 233.826 262.532 C 233.173 261.956, 94.452 198.742, 92.835 198.283 C 91.600 197.933, 85.706 205.086, 70.035 225.954 M 352.500 219.151 C 329.950 229.581, 299.575 243.542, 285 250.176 C 270.425 256.811, 258.350 262.373, 258.166 262.537 C 257.982 262.701, 266.464 275.437, 277.014 290.839 C 296.197 318.843, 296.197 318.843, 305.348 314.600 C 310.382 312.266, 340.929 298.239, 373.231 283.428 C 410.033 266.554, 431.802 256.055, 431.534 255.308 C 431.079 254.037, 393.987 199.935, 393.681 200.095 C 393.582 200.147, 375.050 208.722, 352.500 219.151 M 217.500 310.617 C 205.373 326.751, 196.548 337.590, 195.082 338.152 C 193.611 338.715, 191.652 338.720, 190.082 338.163 C 188.662 337.659, 167.206 327.966, 142.402 316.623 C 117.599 305.281, 97.011 296, 96.652 296 C 96.294 296, 96 302.651, 96 310.780 C 96 325.560, 96 325.560, 166.657 357.789 C 205.519 375.515, 237.427 389.902, 237.564 389.759 C 238.056 389.249, 238.489 284, 238 284.005 C 237.725 284.007, 228.500 295.983, 217.500 310.617 M 253.793 337.079 C 253.632 365.361, 253.725 388.784, 254 389.132 C 254.275 389.480, 284.650 375.919, 321.500 358.997 C 388.500 328.231, 388.500 328.231, 388.774 311.115 C 388.928 301.458, 388.656 294, 388.149 294 C 387.655 294, 366.641 303.450, 341.453 315 C 316.264 326.550, 294.467 336, 293.014 336 C 289.383 336, 287.519 333.753, 271.033 309.500 C 263.182 297.950, 256.157 287.861, 255.423 287.079 C 254.307 285.892, 254.038 294.130, 253.793 337.079" stroke="none" fill="#8cd5f5" fill-rule="evenodd"/><path d="M 354.206 92.350 C 350.127 106.811, 339.535 126.526, 328.019 141.096 C 325.808 143.892, 324 146.723, 324 147.388 C 324 148.052, 339.834 155.851, 359.187 164.717 C 394.373 180.839, 394.373 180.839, 416.187 151.751 C 428.184 135.753, 437.998 122.401, 437.996 122.082 C 437.994 121.762, 423.707 115.007, 406.246 107.070 C 388.786 99.134, 370.446 90.761, 365.490 88.464 C 356.481 84.289, 356.481 84.289, 354.206 92.350 M 89.243 105.333 C 69.863 114.225, 54.005 121.824, 54.003 122.219 C 54.001 122.720, 88.312 173.534, 91.524 177.787 C 91.718 178.043, 155.097 149.200, 155.776 148.546 C 155.928 148.400, 152.287 143.262, 147.685 137.129 C 137.385 123.404, 129.759 109.051, 126.756 97.738 C 124.480 89.165, 124.480 89.165, 89.243 105.333 M 165.450 160.842 C 164.928 161.305, 151.803 167.486, 136.285 174.577 C 120.766 181.668, 108.391 187.753, 108.785 188.100 C 109.178 188.447, 140.275 202.750, 177.890 219.884 C 246.280 251.036, 246.280 251.036, 311.371 221.074 C 347.172 204.595, 376.578 190.749, 376.719 190.306 C 376.860 189.863, 366.069 184.579, 352.738 178.565 C 339.407 172.550, 324.912 165.898, 320.527 163.781 C 312.555 159.933, 312.555 159.933, 302.527 170.242 C 297.012 175.911, 287.208 185.357, 280.740 191.231 C 269.586 201.363, 244.309 222.182, 240.924 224.025 C 239.734 224.674, 235.819 221.941, 224.924 212.857 C 206.364 197.381, 190.142 182.865, 177.179 170.135 C 171.503 164.561, 166.755 160, 166.629 160 C 166.503 160, 165.972 160.379, 165.450 160.842 M 69.500 225.181 C 57.950 240.635, 48.331 253.779, 48.125 254.390 C 47.919 255, 57.449 242.611, 69.303 226.857 C 81.157 211.104, 91.451 197.977, 92.178 197.686 C 93.162 197.293, 93.117 197.148, 92 197.120 C 91.175 197.099, 81.050 209.726, 69.500 225.181 M 403.940 214.500 C 426.729 247.941, 431.515 254.797, 431.847 254.476 C 432.265 254.070, 397.394 203.140, 395.233 201 C 394.400 200.175, 398.318 206.250, 403.940 214.500 M 374 208.500 C 371.525 209.825, 369.950 210.910, 370.500 210.910 C 371.050 210.910, 373.525 209.825, 376 208.500 C 378.475 207.175, 380.050 206.090, 379.500 206.090 C 378.950 206.090, 376.475 207.175, 374 208.500 M 361 214.500 C 358.525 215.825, 356.950 216.910, 357.500 216.910 C 358.050 216.910, 360.525 215.825, 363 214.500 C 365.475 213.175, 367.050 212.090, 366.500 212.090 C 365.950 212.090, 363.475 213.175, 361 214.500 M 337 225.500 C 334.525 226.825, 332.950 227.910, 333.500 227.910 C 334.050 227.910, 336.525 226.825, 339 225.500 C 341.475 224.175, 343.050 223.090, 342.500 223.090 C 341.950 223.090, 339.475 224.175, 337 225.500 M 155 226.500 C 157.475 227.825, 159.950 228.910, 160.500 228.910 C 161.050 228.910, 159.475 227.825, 157 226.500 C 154.525 225.175, 152.050 224.090, 151.500 224.090 C 150.950 224.090, 152.525 225.175, 155 226.500 M 300 242.500 C 297.525 243.825, 295.950 244.910, 296.500 244.910 C 297.050 244.910, 299.525 243.825, 302 242.500 C 304.475 241.175, 306.050 240.090, 305.500 240.090 C 304.950 240.090, 302.475 241.175, 300 242.500 M 201 247.500 C 203.475 248.825, 205.950 249.910, 206.500 249.910 C 207.050 249.910, 205.475 248.825, 203 247.500 C 200.525 246.175, 198.050 245.090, 197.500 245.090 C 196.950 245.090, 198.525 246.175, 201 247.500 M 47 256.493 C 47 257.170, 55.123 261.211, 55.575 260.758 C 55.785 260.549, 53.941 259.398, 51.478 258.202 C 49.015 257.005, 47 256.236, 47 256.493 M 425 259.500 C 422.525 260.825, 420.950 261.910, 421.500 261.910 C 422.050 261.910, 424.525 260.825, 427 259.500 C 429.475 258.175, 431.050 257.090, 430.500 257.090 C 429.950 257.090, 427.475 258.175, 425 259.500 M 211.864 292.538 C 192.221 318.777, 190.299 321.030, 188 320.508 C 186.098 320.075, 185.859 320.182, 187 320.954 C 187.825 321.513, 189.007 321.976, 189.626 321.985 C 190.246 321.993, 199.434 310.413, 210.044 296.250 C 220.654 282.087, 230.438 269.038, 231.786 267.250 C 233.134 265.462, 234.010 264, 233.733 264 C 233.455 264, 223.614 276.842, 211.864 292.538 M 259.497 266.500 C 262.958 272.070, 294.180 317.491, 295.241 318.500 C 297.078 320.246, 295.151 317.314, 277.172 291 C 261.691 268.344, 254.132 257.865, 259.497 266.500 M 375 282.500 C 372.525 283.825, 370.950 284.910, 371.500 284.910 C 372.050 284.910, 374.525 283.825, 377 282.500 C 379.475 281.175, 381.050 280.090, 380.500 280.090 C 379.950 280.090, 377.475 281.175, 375 282.500 M 217.500 309.228 C 207.050 323.094, 197.713 335.239, 196.750 336.219 C 195.787 337.199, 195.415 338, 195.922 338 C 196.671 338, 233.806 289.577, 236.376 285.250 C 238.706 281.325, 234.568 286.582, 217.500 309.228 M 253.529 286.067 C 253.226 286.855, 253.101 309.325, 253.249 336 C 253.520 384.500, 253.520 384.500, 253.760 335.036 C 253.964 292.945, 254.206 285.790, 255.379 287.036 C 256.138 287.841, 263.182 297.950, 271.033 309.500 C 285.441 330.696, 289.519 336, 291.410 336 C 291.979 336, 291.473 335.319, 290.284 334.486 C 289.095 333.654, 281.295 322.966, 272.949 310.736 C 256.156 286.127, 254.373 283.863, 253.529 286.067 M 404.392 299 C 404.392 306.425, 404.549 309.462, 404.742 305.750 C 404.934 302.038, 404.934 295.962, 404.742 292.250 C 404.549 288.538, 404.392 291.575, 404.392 299 M 238.462 343 C 238.462 369.125, 238.591 379.813, 238.749 366.750 C 238.907 353.688, 238.907 332.313, 238.749 319.250 C 238.591 306.188, 238.462 316.875, 238.462 343 M 338 299.500 C 335.525 300.825, 333.950 301.910, 334.500 301.910 C 335.050 301.910, 337.525 300.825, 340 299.500 C 342.475 298.175, 344.050 297.090, 343.500 297.090 C 342.950 297.090, 340.475 298.175, 338 299.500 M 325 305.500 C 322.525 306.825, 320.950 307.910, 321.500 307.910 C 322.050 307.910, 324.525 306.825, 327 305.500 C 329.475 304.175, 331.050 303.090, 330.500 303.090 C 329.950 303.090, 327.475 304.175, 325 305.500 M 345 312.500 C 342.525 313.825, 340.950 314.910, 341.500 314.910 C 342.050 314.910, 344.525 313.825, 347 312.500 C 349.475 311.175, 351.050 310.090, 350.500 310.090 C 349.950 310.090, 347.475 311.175, 345 312.500 M 153 321.500 C 155.475 322.825, 157.950 323.910, 158.500 323.910 C 159.050 323.910, 157.475 322.825, 155 321.500 C 152.525 320.175, 150.050 319.090, 149.500 319.090 C 148.950 319.090, 150.525 320.175, 153 321.500 M 321 323.500 C 318.525 324.825, 316.950 325.910, 317.500 325.910 C 318.050 325.910, 320.525 324.825, 323 323.500 C 325.475 322.175, 327.050 321.090, 326.500 321.090 C 325.950 321.090, 323.475 322.175, 321 323.500 M 366 338.500 C 363.525 339.825, 361.950 340.910, 362.500 340.910 C 363.050 340.910, 365.525 339.825, 368 338.500 C 370.475 337.175, 372.050 336.090, 371.500 336.090 C 370.950 336.090, 368.475 337.175, 366 338.500 M 342 349.500 C 339.525 350.825, 337.950 351.910, 338.500 351.910 C 339.050 351.910, 341.525 350.825, 344 349.500 C 346.475 348.175, 348.050 347.090, 347.500 347.090 C 346.950 347.090, 344.475 348.175, 342 349.500 M 151 351.500 C 153.475 352.825, 155.950 353.910, 156.500 353.910 C 157.050 353.910, 155.475 352.825, 153 351.500 C 150.525 350.175, 148.050 349.090, 147.500 349.090 C 146.950 349.090, 148.525 350.175, 151 351.500 M 318 360.500 C 315.525 361.825, 313.950 362.910, 314.500 362.910 C 315.050 362.910, 317.525 361.825, 320 360.500 C 322.475 359.175, 324.050 358.090, 323.500 358.090 C 322.950 358.090, 320.475 359.175, 318 360.500 M 281 377.500 C 278.525 378.825, 276.950 379.910, 277.500 379.910 C 278.050 379.910, 280.525 378.825, 283 377.500 C 285.475 376.175, 287.050 375.090, 286.500 375.090 C 285.950 375.090, 283.475 376.175, 281 377.500" stroke="none" fill="#5295b2" fill-rule="evenodd"/><path d="M 357.150 76.338 C 357.081 84.675, 357.081 84.675, 397.535 103.088 C 419.785 113.214, 437.991 121.762, 437.995 122.082 C 437.998 122.401, 428.183 135.755, 416.184 151.755 C 394.367 180.847, 394.367 180.847, 358.934 164.544 C 323.500 148.241, 323.500 148.241, 318.335 153.870 C 314.457 158.096, 313.460 159.776, 314.335 160.608 C 314.976 161.218, 329.330 167.968, 346.234 175.608 C 363.137 183.249, 376.854 189.863, 376.715 190.306 C 376.576 190.749, 347.172 204.595, 311.371 221.074 C 246.280 251.036, 246.280 251.036, 177.890 219.884 C 140.275 202.750, 109.178 188.447, 108.785 188.100 C 108.391 187.753, 120.766 181.668, 136.285 174.577 C 151.803 167.486, 164.893 161.340, 165.374 160.919 C 166.244 160.156, 157.321 149, 155.841 149 C 155.413 149, 140.815 155.542, 123.402 163.537 C 105.988 171.533, 91.644 177.945, 91.524 177.787 C 88.319 173.544, 54.001 122.720, 54.002 122.219 C 54.003 121.824, 69.721 114.300, 88.931 105.500 C 123.858 89.500, 123.858 89.500, 124.179 80.882 C 124.500 72.265, 124.500 72.265, 122 73.378 C 120.625 73.990, 100.825 83.073, 78 93.563 C 33.161 114.171, 32.316 114.700, 34.601 120.754 C 35.188 122.310, 45.419 137.801, 57.335 155.178 C 69.251 172.555, 79 187.064, 79 187.419 C 79 187.774, 67.525 203.353, 53.500 222.039 C 31.645 251.157, 28 256.507, 28 259.468 C 28 261.649, 28.733 263.581, 29.989 264.711 C 31.083 265.695, 43 271.450, 56.473 277.500 C 80.969 288.500, 80.969 288.500, 80.984 310.694 C 81 332.307, 81.059 332.953, 83.250 335.339 C 85.592 337.889, 242.523 409.991, 245.776 410.011 C 248.575 410.028, 400.336 339.975, 402.250 337.783 C 403.816 335.990, 404 333.168, 404 310.998 C 404 286.218, 404 286.218, 426.597 275.859 C 445.097 267.378, 449.457 264.992, 450.648 262.700 C 451.504 261.054, 451.816 258.994, 451.407 257.700 C 451.024 256.490, 441.098 241.469, 429.350 224.320 C 417.603 207.171, 407.736 192.477, 407.426 191.666 C 407.073 190.747, 416.474 177.366, 432.430 156.074 C 453.879 127.454, 458 121.419, 458 118.632 C 458 116.732, 457.251 114.639, 456.250 113.743 C 455.288 112.881, 443.700 107.227, 430.500 101.178 C 385.719 80.657, 379.512 77.817, 368.707 72.906 C 362.771 70.208, 357.757 68, 357.567 68 C 357.376 68, 357.188 71.752, 357.150 76.338 M 69.316 225.413 C 57.665 241.030, 47.990 254.591, 47.816 255.548 C 47.560 256.958, 60.908 263.410, 118.362 289.644 C 157.337 307.440, 189.572 322, 189.996 322 C 191.203 322, 234.004 264.482, 233.969 262.906 C 233.950 262.025, 207.814 249.607, 164.019 229.669 C 125.563 212.163, 93.290 197.654, 92.300 197.428 C 90.923 197.114, 85.526 203.685, 69.316 225.413 M 332 227.779 C 298.725 243.058, 268.449 256.896, 264.719 258.530 C 259.206 260.945, 258.003 261.875, 258.284 263.506 C 258.759 266.265, 294.983 319, 296.404 319 C 297.033 319, 327.687 305.135, 364.524 288.188 C 417.535 263.800, 431.546 256.972, 431.721 255.438 C 431.981 253.166, 395.953 200.627, 393.876 200.250 C 393.119 200.112, 365.275 212.501, 332 227.779 M 217.500 309.228 C 196.187 337.507, 195.768 338, 193.031 338 C 191.948 338, 170.355 328.550, 145.047 317 C 119.739 305.450, 98.350 296, 97.516 296 C 96.227 296, 96.004 298.278, 96.024 311.250 C 96.047 326.500, 96.047 326.500, 165.774 358.254 C 204.123 375.719, 236.287 390.007, 237.250 390.004 C 238.895 390, 239 386.808, 239 337 C 239 295.262, 238.734 284.002, 237.750 284.009 C 237.063 284.014, 227.950 295.363, 217.500 309.228 M 253.690 285.643 C 253.311 286.023, 253 309.658, 253 338.167 C 253 380.349, 253.245 390, 254.316 390 C 255.039 390, 285.527 376.286, 322.066 359.523 C 388.500 329.047, 388.500 329.047, 388.773 311.523 C 389.026 295.290, 388.915 294, 387.267 294 C 386.289 294, 364.791 303.491, 339.494 315.090 C 296.230 334.929, 293.352 336.100, 291 334.810 C 289.625 334.055, 281.421 323.127, 272.769 310.524 C 256.157 286.327, 254.790 284.543, 253.690 285.643" stroke="none" fill="#050606" fill-rule="evenodd"/></svg>